<svg preserveAspectRatio="none" width="100%" height="100%" overflow="visible" style="display: block;" viewBox="0 0 37.3681 29.5" fill="none" xmlns="http://www.w3.org/2000/svg">
<path id="Icon" d="M15.9376 21.3308C16.636 22.0292 17.5355 22.3608 18.6361 22.3255C19.7366 22.2902 20.5441 21.893 21.0585 21.1341L31.7314 5.67309L16.2326 16.3082C15.4611 16.8226 15.0444 17.6137 14.9826 18.6815C14.9209 19.7493 15.2392 20.6324 15.9376 21.3308ZM18.6834 0C20.5542 0 22.3072 0.245202 23.9423 0.735607C25.5774 1.22601 27.1564 1.96792 28.6793 2.96134L25.9071 4.754C24.7876 4.15895 23.6272 3.70951 22.4257 3.40568C21.2243 3.10186 19.9768 2.94994 18.6834 2.94994C14.3239 2.94994 10.6118 4.48231 7.54705 7.54705C4.48231 10.6118 2.94994 14.3239 2.94994 18.6834C2.94994 20.06 3.13842 21.4203 3.51536 22.7642C3.89231 24.1081 4.42495 25.3701 5.11329 26.5501H32.2534C33.0073 25.3045 33.5563 24.0098 33.9005 22.6659C34.2447 21.322 34.4168 19.9289 34.4168 18.4867C34.4168 17.3067 34.2712 16.1122 33.9799 14.9032C33.6887 13.6942 33.2393 12.5463 32.6316 11.4596L34.4243 8.68739C35.395 10.2784 36.1231 11.87 36.6084 13.4622C37.0938 15.0545 37.3465 16.7091 37.3667 18.4262C37.3869 20.2063 37.1864 21.8886 36.7654 23.4733C36.3443 25.058 35.7102 26.608 34.863 28.1234C34.6033 28.5495 34.2377 28.8854 33.7662 29.1313C33.2947 29.3771 32.7905 29.5 32.2534 29.5H5.11329C4.58885 29.5 4.09404 29.3739 3.62886 29.1218C3.16368 28.8697 2.78863 28.5116 2.50372 28.0477C1.75236 26.7366 1.14723 25.307 0.688337 23.7589C0.229446 22.2108 0 20.5189 0 18.6834C0 16.1141 0.487885 13.698 1.46365 11.435C2.43942 9.17212 3.77008 7.19158 5.45561 5.49344C7.14115 3.79529 9.12357 2.45518 11.4029 1.47311C13.6822 0.491037 16.109 0 18.6834 0Z" fill="var(--fill-0, #D0FC06)"/>
</svg>
