<svg preserveAspectRatio="none" width="100%" height="100%" overflow="visible" style="display: block;" viewBox="0 0 29 32" fill="none" xmlns="http://www.w3.org/2000/svg">
<path id="Icon" d="M1.68174 32V27.7386H6.83044L2.50967 12.2127C1.76366 11.7865 1.15889 11.1686 0.695332 10.3589C0.231777 9.54927 0 8.65437 0 7.67423C0 6.26559 0.450078 5.06706 1.35023 4.07864C2.25039 3.09023 3.3419 2.59602 4.62475 2.59602C5.68554 2.59602 6.61373 2.94226 7.40931 3.63475C8.2049 4.32724 8.74931 5.21209 9.04253 6.28929H14.8122V3.98096C14.8122 3.58797 14.933 3.2589 15.1744 2.99375C15.4159 2.72859 15.7156 2.59602 16.0735 2.59602C16.2934 2.59602 16.4982 2.65757 16.688 2.78068C16.8777 2.90379 17.0243 3.07662 17.1278 3.29916V3.54776L20.0838 0.522115C20.3253 0.256958 20.605 0.0918269 20.923 0.026722C21.241 -0.0383829 21.5521 0.0154773 21.8561 0.188303L28.3178 3.47673C28.5895 3.62588 28.783 3.84191 28.8983 4.12482C29.0137 4.40773 29.0121 4.68886 28.8935 4.96822C28.7576 5.26652 28.5609 5.45769 28.3033 5.54173C28.0456 5.62578 27.7896 5.60269 27.5352 5.47248L21.3192 2.31899L17.3348 6.38159V8.96688L21.3192 12.9371L27.5352 9.78365C27.7896 9.65344 28.0499 9.6351 28.3162 9.72861C28.5825 9.82212 28.7749 10.0086 28.8935 10.2879C29.0293 10.5862 29.0352 10.8721 28.9113 11.1455C28.7873 11.419 28.5895 11.6303 28.3178 11.7794L21.8561 15.1247C21.5521 15.2975 21.241 15.3484 20.923 15.2774C20.605 15.2063 20.3253 15.0442 20.0838 14.7908L17.1278 11.8007V12.0493C17.0243 12.234 16.8777 12.3973 16.688 12.5394C16.4982 12.6814 16.2934 12.7525 16.0735 12.7525C15.7156 12.7525 15.4159 12.6199 15.1744 12.3547C14.933 12.0896 14.8122 11.7605 14.8122 11.3675V9.05918H9.04253C8.95844 9.38826 8.84309 9.70788 8.69647 10.018C8.54986 10.3282 8.37629 10.6123 8.17577 10.8703L16.4551 27.7386H22.7034V32H1.68174ZM4.62475 9.98256C5.20906 9.98256 5.7055 9.75824 6.11408 9.3096C6.52267 8.86095 6.72696 8.31583 6.72696 7.67423C6.72696 7.03264 6.52267 6.48752 6.11408 6.03887C5.7055 5.59023 5.20906 5.36591 4.62475 5.36591C4.04045 5.36591 3.544 5.59023 3.13542 6.03887C2.72684 6.48752 2.52255 7.03264 2.52255 7.67423C2.52255 8.31583 2.72684 8.86095 3.13542 9.3096C3.544 9.75824 4.04045 9.98256 4.62475 9.98256ZM9.43708 27.7386H13.5574L6.13186 12.5749C6.04561 12.6341 5.90977 12.6844 5.72434 12.7258C5.53891 12.7672 5.3815 12.7761 5.25213 12.7525L9.43708 27.7386Z" fill="var(--fill-0, #D0FC06)"/>
</svg>
