<svg preserveAspectRatio="none" width="100%" height="100%" overflow="visible" style="display: block;" viewBox="0 0 31.4999 31.4999" fill="none" xmlns="http://www.w3.org/2000/svg">
<path id="Icon" d="M2.92788 31.4999V25.0268C2.08173 24.7653 1.38221 24.2869 0.829326 23.5917C0.276442 22.8965 0 22.0849 0 21.1569V6.87976H2.92788V1.12497C2.92788 0.80623 3.03574 0.539049 3.25145 0.323428C3.46717 0.107809 3.73447 0 4.05336 0C4.37224 0 4.63938 0.107809 4.85476 0.323428C5.07013 0.539049 5.17782 0.80623 5.17782 1.12497V6.87976H8.1057V21.1569C8.1057 22.0849 7.82926 22.8965 7.27638 23.5917C6.72349 24.2869 6.02398 24.7653 5.17782 25.0268V31.4999H2.92788V31.4999M14.625 31.4999V25.0268C13.7788 24.7653 13.0793 24.2869 12.5264 23.5917C11.9735 22.8965 11.6971 22.0849 11.6971 21.1569V6.87976H14.625V1.12497C14.625 0.80623 14.7328 0.539049 14.9485 0.323428C15.1643 0.107809 15.4316 0 15.7505 0C16.0693 0 16.3365 0.107809 16.5518 0.323428C16.7672 0.539049 16.8749 0.80623 16.8749 1.12497V6.87976H19.8028V21.1569C19.8028 22.0849 19.5264 22.8965 18.9735 23.5917C18.4206 24.2869 17.7211 24.7653 16.8749 25.0268V31.4999H14.625V31.4999M26.3221 31.4999V25.0268C25.4759 24.7653 24.7764 24.2869 24.2235 23.5917C23.6706 22.8965 23.3942 22.0849 23.3942 21.1569V6.87976H26.3221V1.12497C26.3221 0.80623 26.4299 0.539049 26.6456 0.323428C26.8614 0.107809 27.1287 0 27.4475 0C27.7664 0 28.0336 0.107809 28.2489 0.323428C28.4643 0.539049 28.572 0.80623 28.572 1.12497V6.87976H31.4999V21.1569C31.4999 22.0849 31.2234 22.8965 30.6706 23.5917C30.1177 24.2869 29.4182 24.7653 28.572 25.0268V31.4999H26.3221V31.4999M2.24995 9.12971V15.649H5.85576V9.12971H2.24995V9.12971M13.947 9.12971V15.649H17.5529V9.12971H13.947V9.12971M25.6441 9.12971V15.649H29.2499V9.12971H25.6441V9.12971M4.05285 22.9615C4.55478 22.9615 4.98075 22.7887 5.33075 22.4431C5.68076 22.0976 5.85576 21.6694 5.85576 21.1586V17.8989H2.24995V21.1586C2.24995 21.6694 2.42495 22.0976 2.77495 22.4431C3.12496 22.7887 3.55092 22.9615 4.05285 22.9615V22.9615M15.7499 22.9615C16.2519 22.9615 16.6778 22.7887 17.0278 22.4431C17.3778 22.0976 17.5529 21.6694 17.5529 21.1586V17.8989H13.947V21.1586C13.947 21.6694 14.122 22.0976 14.472 22.4431C14.822 22.7887 15.248 22.9615 15.7499 22.9615V22.9615M27.447 22.9615C27.949 22.9615 28.3749 22.7887 28.7249 22.4431C29.0749 22.0976 29.2499 21.6694 29.2499 21.1586V17.8989H25.6441V21.1586C25.6441 21.6694 25.8191 22.0976 26.1691 22.4431C26.5191 22.7887 26.9451 22.9615 27.447 22.9615V22.9615M4.05285 16.7739V16.7739V16.7739V16.7739V16.7739V16.7739M15.7499 16.7739V16.7739V16.7739V16.7739V16.7739V16.7739M27.447 16.7739V16.7739V16.7739V16.7739V16.7739V16.7739" fill="var(--fill-0, #D0FC06)"/>
</svg>
