<svg preserveAspectRatio="none" width="100%" height="100%" overflow="visible" style="display: block;" viewBox="0 0 26.2499 25.7163" fill="none" xmlns="http://www.w3.org/2000/svg">
<path id="Icon" d="M0 25.7163V23.2499L2.24995 21V25.7163H0V25.7163M6 25.7163V17.2499L8.24994 15V15V25.7163H6V25.7163M12 25.7163V15L14.2499 17.2874V25.7163H12V25.7163M18 25.7163V17.2874L20.2499 15.0375V25.7163H18V25.7163M24 25.7163V11.2499L26.2499 9V25.7163H24V25.7163M0 17.4201V14.2499L10.125 4.12497L16.125 10.125L26.2499 0V3.17011L16.125 13.2951L10.125 7.29509L0 17.4201V17.4201" fill="var(--fill-0, #D0FC06)"/>
</svg>
