<svg preserveAspectRatio="none" width="100%" height="100%" overflow="visible" style="display: block;" viewBox="0 0 20 32" fill="none" xmlns="http://www.w3.org/2000/svg">
<path id="Icon" d="M15.1119 32V27.3143H11.7573L16.6454 19.5582V24.2439H20L15.1119 32ZM1.50159 31.6002C1.07614 31.6002 0.719514 31.4561 0.431709 31.168C0.143903 30.8799 0 30.5228 0 30.0969V4.39777C0 3.97185 0.143903 3.61483 0.431709 3.32671C0.719514 3.03859 1.07614 2.89453 1.50159 2.89453H4.50478V0H10.639V2.89453H13.6454C14.0714 2.89453 14.4276 3.03859 14.714 3.32671C15.0005 3.61483 15.1438 3.97185 15.1438 4.39777V15.96C14.7007 15.9813 14.2742 16.0299 13.8642 16.1055C13.4542 16.1812 13.0501 16.2894 12.6518 16.4302V5.37323H2.49197V29.1055H6.57188C6.74014 29.5831 6.93822 30.0271 7.16611 30.4376C7.39401 30.848 7.66557 31.2356 7.98079 31.6002H1.50159Z" fill="var(--fill-0, #D0FC06)"/>
</svg>
