<svg preserveAspectRatio="none" width="100%" height="100%" overflow="visible" style="display: block;" viewBox="0 0 28.6441 22.4999" fill="none" xmlns="http://www.w3.org/2000/svg">
<g id="Container">
<path id="Icon" d="M9.5192 6.15382V6.15382V6.15382V6.15382V6.15382V6.15382V6.15382V6.15382V6.15382V6.15382V6.15382V6.15382M0 14.9999V13.5H9.5192V14.9999H0V14.9999M2.80768 12.3076C2.30255 12.3076 1.87499 12.1326 1.525 11.7826C1.175 11.4326 1 11.0051 1 10.5V1.80768C1 1.30255 1.175 0.874992 1.525 0.524995C1.87499 0.174998 2.30255 0 2.80768 0H16.1922C16.6397 0 17.0272 0.144548 17.3547 0.433643C17.6823 0.722738 17.8717 1.07818 17.923 1.49996H2.80768C2.73075 1.49996 2.66023 1.53202 2.59612 1.59612C2.53202 1.66023 2.49996 1.73075 2.49996 1.80768V10.5C2.49996 10.5769 2.53202 10.6474 2.59612 10.7115C2.66023 10.7756 2.73075 10.8077 2.80768 10.8077H9.5192V12.3076H2.80768V12.3076M17.5961 13.3365V5.54804C17.5961 5.50317 17.5801 5.4647 17.548 5.43265C17.516 5.4006 17.4775 5.38457 17.4327 5.38457H13.5673C13.5224 5.38457 13.4839 5.4006 13.4519 5.43265C13.4198 5.4647 13.4038 5.50317 13.4038 5.54804V13.3365C13.4038 13.3814 13.4198 13.4198 13.4519 13.4519C13.4839 13.4839 13.5224 13.5 13.5673 13.5H17.4327C17.4775 13.5 17.516 13.4839 17.548 13.4519C17.5801 13.4198 17.5961 13.3814 17.5961 13.3365V13.3365M13.2596 14.9999C12.883 14.9999 12.5629 14.8681 12.2993 14.6045C12.0356 14.3409 11.9038 14.0208 11.9038 13.6442V5.24037C11.9038 4.86377 12.0356 4.54366 12.2993 4.28004C12.5629 4.01642 12.883 3.88461 13.2596 3.88461H17.7403C18.1169 3.88461 18.437 4.01642 18.7007 4.28004C18.9643 4.54366 19.0961 4.86377 19.0961 5.24037V13.6442C19.0961 14.0208 18.9643 14.3409 18.7007 14.6045C18.437 14.8681 18.1169 14.9999 17.7403 14.9999H13.2596V14.9999M15.4982 7.99996C15.7032 7.99996 15.8734 7.92899 16.0086 7.78704C16.1439 7.64509 16.2115 7.47948 16.2115 7.29022C16.2115 7.08518 16.1439 6.91503 16.0087 6.77978C15.8736 6.64452 15.7026 6.57689 15.4958 6.57689C15.305 6.57689 15.1394 6.64448 14.999 6.77966C14.8586 6.91484 14.7884 7.0858 14.7884 7.29255C14.7884 7.48339 14.8594 7.649 15.0014 7.78939C15.1433 7.92977 15.3089 7.99996 15.4982 7.99996V7.99996M15.5 9.44227V9.44227V9.44227V9.44227V9.44227V9.44227V9.44227V9.44227V9.44227V9.44227V9.44227V9.44227V9.44227V9.44227" fill="var(--fill-0, white)"/>
</g>
</svg>
