<svg preserveAspectRatio="none" width="100%" height="100%" overflow="visible" style="display: block;" viewBox="0 0 16.6667 13.9167" fill="none" xmlns="http://www.w3.org/2000/svg">
<g id="Container">
<path id="Icon" d="M0 13.9167V12.2917C0.402778 12.2917 0.746528 12.2292 1.03125 12.1042C1.31597 11.9792 1.60417 11.8438 1.89583 11.6979C2.1875 11.5521 2.51042 11.4201 2.86458 11.3021C3.21875 11.184 3.65625 11.125 4.17708 11.125C4.69792 11.125 5.12847 11.184 5.46875 11.3021C5.80903 11.4201 6.125 11.5521 6.41667 11.6979C6.70833 11.8438 7 11.9792 7.29167 12.1042C7.58333 12.2292 7.93056 12.2917 8.33333 12.2917C8.73611 12.2917 9.08333 12.2292 9.375 12.1042C9.66667 11.9792 9.95833 11.8438 10.25 11.6979C10.5417 11.5521 10.8611 11.4201 11.2083 11.3021C11.5556 11.184 11.9896 11.125 12.5104 11.125C13.0313 11.125 13.4653 11.184 13.8125 11.3021C14.1597 11.4201 14.4792 11.5521 14.7708 11.6979C15.0625 11.8438 15.3542 11.9792 15.6458 12.1042C15.9375 12.2292 16.2778 12.2917 16.6667 12.2917V13.9167C16.1389 13.9167 15.6979 13.8542 15.3438 13.7292C14.9896 13.6042 14.6667 13.4688 14.375 13.3229C14.0833 13.1771 13.7986 13.0451 13.5208 12.9271C13.2431 12.809 12.9028 12.75 12.5 12.75C12.1111 12.75 11.7743 12.809 11.4896 12.9271C11.2049 13.0451 10.9201 13.1771 10.6354 13.3229C10.3507 13.4688 10.0312 13.6042 9.67708 13.7292C9.32292 13.8542 8.875 13.9167 8.33333 13.9167C7.79167 13.9167 7.34375 13.8542 6.98958 13.7292C6.63542 13.6042 6.31597 13.4688 6.03125 13.3229C5.74653 13.1771 5.46528 13.0451 5.1875 12.9271C4.90972 12.809 4.57292 12.75 4.17708 12.75C3.78125 12.75 3.44097 12.809 3.15625 12.9271C2.87153 13.0451 2.58333 13.1771 2.29167 13.3229C2 13.4688 1.67708 13.6042 1.32292 13.7292C0.96875 13.8542 0.527778 13.9167 0 13.9167V13.9167M0 10.2083V8.58333C0.402778 8.58333 0.746528 8.52083 1.03125 8.39583C1.31597 8.27083 1.60417 8.13542 1.89583 7.98958C2.1875 7.84375 2.51042 7.71181 2.86458 7.59375C3.21875 7.47569 3.65625 7.41667 4.17708 7.41667C4.69792 7.41667 5.12847 7.47569 5.46875 7.59375C5.80903 7.71181 6.125 7.84375 6.41667 7.98958C6.70833 8.13542 7 8.27083 7.29167 8.39583C7.58333 8.52083 7.93056 8.58333 8.33333 8.58333C8.73611 8.58333 9.08333 8.52083 9.375 8.39583C9.66667 8.27083 9.95833 8.13542 10.25 7.98958C10.5417 7.84375 10.8611 7.71181 11.2083 7.59375C11.5556 7.47569 11.9861 7.41667 12.5 7.41667C13.0278 7.41667 13.4653 7.47569 13.8125 7.59375C14.1597 7.71181 14.4792 7.84375 14.7708 7.98958C15.0625 8.13542 15.3542 8.27083 15.6458 8.39583C15.9375 8.52083 16.2778 8.58333 16.6667 8.58333V10.2083C16.1389 10.2083 15.6979 10.1458 15.3438 10.0208C14.9896 9.89583 14.6667 9.76042 14.375 9.61458C14.0833 9.46875 13.7986 9.33681 13.5208 9.21875C13.2431 9.10069 12.9028 9.04167 12.5 9.04167C12.0972 9.04167 11.7535 9.10069 11.4688 9.21875C11.184 9.33681 10.8993 9.46875 10.6146 9.61458C10.3299 9.76042 10.0139 9.89583 9.66667 10.0208C9.31944 10.1458 8.875 10.2083 8.33333 10.2083C7.79167 10.2083 7.34375 10.1458 6.98958 10.0208C6.63542 9.89583 6.31597 9.76042 6.03125 9.61458C5.74653 9.46875 5.46528 9.33681 5.1875 9.21875C4.90972 9.10069 4.57292 9.04167 4.17708 9.04167C3.78125 9.04167 3.44097 9.10069 3.15625 9.21875C2.87153 9.33681 2.58333 9.46875 2.29167 9.61458C2 9.76042 1.67708 9.89583 1.32292 10.0208C0.96875 10.1458 0.527778 10.2083 0 10.2083V10.2083M0 6.5V4.875C0.402778 4.875 0.746528 4.8125 1.03125 4.6875C1.31597 4.5625 1.60417 4.42708 1.89583 4.28125C2.1875 4.13542 2.51042 4.00347 2.86458 3.88542C3.21875 3.76736 3.65625 3.70833 4.17708 3.70833C4.69792 3.70833 5.12847 3.76736 5.46875 3.88542C5.80903 4.00347 6.125 4.13542 6.41667 4.28125C6.70833 4.42708 7 4.5625 7.29167 4.6875C7.58333 4.8125 7.93056 4.875 8.33333 4.875C8.73611 4.875 9.08333 4.8125 9.375 4.6875C9.66667 4.5625 9.95833 4.42708 10.25 4.28125C10.5417 4.13542 10.8611 4.00347 11.2083 3.88542C11.5556 3.76736 11.9861 3.70833 12.5 3.70833C13.0278 3.70833 13.4653 3.76736 13.8125 3.88542C14.1597 4.00347 14.4792 4.13542 14.7708 4.28125C15.0625 4.42708 15.3542 4.5625 15.6458 4.6875C15.9375 4.8125 16.2778 4.875 16.6667 4.875V6.5C16.1389 6.5 15.6979 6.4375 15.3438 6.3125C14.9896 6.1875 14.6667 6.05208 14.375 5.90625C14.0833 5.76042 13.7986 5.62847 13.5208 5.51042C13.2431 5.39236 12.9028 5.33333 12.5 5.33333C12.1111 5.33333 11.7743 5.39236 11.4896 5.51042C11.2049 5.62847 10.9201 5.76042 10.6354 5.90625C10.3507 6.05208 10.0312 6.1875 9.67708 6.3125C9.32292 6.4375 8.875 6.5 8.33333 6.5C7.79167 6.5 7.34375 6.4375 6.98958 6.3125C6.63542 6.1875 6.31597 6.05208 6.03125 5.90625C5.74653 5.76042 5.46528 5.62847 5.1875 5.51042C4.90972 5.39236 4.57292 5.33333 4.17708 5.33333C3.78125 5.33333 3.44097 5.39236 3.15625 5.51042C2.87153 5.62847 2.58333 5.76042 2.29167 5.90625C2 6.05208 1.67708 6.1875 1.32292 6.3125C0.96875 6.4375 0.527778 6.5 0 6.5V6.5M0 2.79167V1.16667C0.402778 1.16667 0.746528 1.10417 1.03125 0.979167C1.31597 0.854167 1.60417 0.71875 1.89583 0.572917C2.1875 0.427083 2.51042 0.295139 2.86458 0.177083C3.21875 0.0590278 3.65625 0 4.17708 0C4.69792 0 5.12847 0.0590278 5.46875 0.177083C5.80903 0.295139 6.125 0.427083 6.41667 0.572917C6.70833 0.71875 7 0.854167 7.29167 0.979167C7.58333 1.10417 7.93056 1.16667 8.33333 1.16667C8.73611 1.16667 9.08333 1.10417 9.375 0.979167C9.66667 0.854167 9.95833 0.71875 10.25 0.572917C10.5417 0.427083 10.8611 0.295139 11.2083 0.177083C11.5556 0.0590278 11.9861 0 12.5 0C13.0278 0 13.4653 0.0590278 13.8125 0.177083C14.1597 0.295139 14.4792 0.427083 14.7708 0.572917C15.0625 0.71875 15.3542 0.854167 15.6458 0.979167C15.9375 1.10417 16.2778 1.16667 16.6667 1.16667V2.79167C16.1389 2.79167 15.6979 2.72917 15.3438 2.60417C14.9896 2.47917 14.6667 2.34375 14.375 2.19792C14.0833 2.05208 13.7986 1.92014 13.5208 1.80208C13.2431 1.68403 12.9028 1.625 12.5 1.625C12.1111 1.625 11.7743 1.68403 11.4896 1.80208C11.2049 1.92014 10.9201 2.05208 10.6354 2.19792C10.3507 2.34375 10.0312 2.47917 9.67708 2.60417C9.32292 2.72917 8.875 2.79167 8.33333 2.79167C7.79167 2.79167 7.34375 2.72917 6.98958 2.60417C6.63542 2.47917 6.31597 2.34375 6.03125 2.19792C5.74653 2.05208 5.46528 1.92014 5.1875 1.80208C4.90972 1.68403 4.57292 1.625 4.17708 1.625C3.78125 1.625 3.44097 1.68403 3.15625 1.80208C2.87153 1.92014 2.58333 2.05208 2.29167 2.19792C2 2.34375 1.67708 2.47917 1.32292 2.60417C0.96875 2.72917 0.527778 2.79167 0 2.79167V2.79167" fill="var(--fill-0, #2D2F2F)"/>
</g>
</svg>
