<svg preserveAspectRatio="none" width="100%" height="100%" overflow="visible" style="display: block;" viewBox="0 0 22.5 25" fill="none" xmlns="http://www.w3.org/2000/svg">
<g id="Container">
<path id="Icon" d="M11.25 25C9.97917 25 8.67708 24.7708 7.34375 24.3125C6.01042 23.8542 4.80208 23.2292 3.71875 22.4375C2.63542 21.6458 1.74479 20.7188 1.04688 19.6562C0.348958 18.5938 0 17.4583 0 16.25V12.5L5 16.25L3.0625 18.1875C3.66667 19.25 4.625 20.1667 5.9375 20.9375C7.25 21.7083 8.60417 22.1979 10 22.4062V11.25H6.25V8.75H10V7.28125C9.27083 7.01042 8.67188 6.55729 8.20312 5.92188C7.73438 5.28646 7.5 4.5625 7.5 3.75C7.5 2.70833 7.86458 1.82292 8.59375 1.09375C9.32292 0.364583 10.2083 0 11.25 0C12.2917 0 13.1771 0.364583 13.9062 1.09375C14.6354 1.82292 15 2.70833 15 3.75C15 4.5625 14.7656 5.28646 14.2969 5.92188C13.8281 6.55729 13.2292 7.01042 12.5 7.28125V8.75H16.25V11.25H12.5V22.4062C13.8958 22.1979 15.25 21.7083 16.5625 20.9375C17.875 20.1667 18.8333 19.25 19.4375 18.1875L17.5 16.25L22.5 12.5V16.25C22.5 17.4583 22.151 18.5938 21.4531 19.6562C20.7552 20.7188 19.8646 21.6458 18.7812 22.4375C17.6979 23.2292 16.4896 23.8542 15.1562 24.3125C13.8229 24.7708 12.5208 25 11.25 25V25M11.25 5C11.6042 5 11.901 4.88021 12.1406 4.64062C12.3802 4.40104 12.5 4.10417 12.5 3.75C12.5 3.39583 12.3802 3.09896 12.1406 2.85938C11.901 2.61979 11.6042 2.5 11.25 2.5C10.8958 2.5 10.599 2.61979 10.3594 2.85938C10.1198 3.09896 10 3.39583 10 3.75C10 4.10417 10.1198 4.40104 10.3594 4.64062C10.599 4.88021 10.8958 5 11.25 5V5" fill="var(--fill-0, white)"/>
</g>
</svg>
