<svg preserveAspectRatio="none" width="100%" height="100%" overflow="visible" style="display: block;" viewBox="0 0 34.3845 23.9133" fill="none" xmlns="http://www.w3.org/2000/svg">
<g id="Container">
<path id="Icon" d="M11.4615 15.9422C10.8961 15.9422 10.4182 15.747 10.0279 15.3567C9.63749 14.9663 9.4423 14.4884 9.4423 13.923C9.4423 13.3577 9.63749 12.8798 10.0279 12.4894C10.4182 12.099 10.8961 11.9038 11.4615 11.9038C12.0269 11.9038 12.5048 12.099 12.8951 12.4894C13.2855 12.8798 13.4807 13.3577 13.4807 13.923C13.4807 14.4884 13.2855 14.9663 12.8951 15.3567C12.5048 15.747 12.0269 15.9422 11.4615 15.9422V15.9422M5.8115 10.5807L4.25 8.98845C5.17564 8.06281 6.25287 7.33333 7.48171 6.8C8.71055 6.26667 10.0371 6 11.4615 6C12.8859 6 14.2124 6.26923 15.4413 6.80769C16.6701 7.34615 17.7474 8.08332 18.673 9.01921L17.1115 10.5807C16.3782 9.84738 15.5282 9.27238 14.5615 8.85571C13.5948 8.43905 12.5615 8.23071 11.4615 8.23071C10.3615 8.23071 9.32817 8.43905 8.3615 8.85571C7.39483 9.27238 6.54483 9.84738 5.8115 10.5807V10.5807M1.5615 6.33071L0 4.76921C1.46282 3.28589 3.17114 2.12019 5.12498 1.27211C7.07882 0.424037 9.19099 0 11.4615 0C13.732 0 15.8442 0.424037 17.798 1.27211C19.7519 2.12019 21.4602 3.28589 22.923 4.76921L21.3615 6.33071C20.0782 5.04738 18.5907 4.04321 16.899 3.31821C15.2073 2.59321 13.3948 2.23071 11.4615 2.23071C9.52817 2.23071 7.71567 2.59321 6.024 3.31821C4.33233 4.04321 2.84483 5.04738 1.5615 6.33071V6.33071" fill="var(--fill-0, white)"/>
</g>
</svg>
