<svg preserveAspectRatio="none" width="100%" height="100%" overflow="visible" style="display: block;" viewBox="0 0 48.7317 36.0976" fill="none" xmlns="http://www.w3.org/2000/svg">
<g id="logomark">
<path id="Vector" d="M31.5854 0C41.055 0 48.7317 7.67668 48.7317 17.1463V36.0976C44.7445 36.0976 41.5122 32.8653 41.5122 28.878V17.1463C41.5122 11.6639 37.0678 7.21951 31.5854 7.21951H26.8916C24.4982 7.21955 22.2026 8.17013 20.5102 9.86249L8.27706 22.0966C7.60015 22.7734 7.21957 23.6915 7.21951 24.6488V25.2683C7.21951 27.2619 8.83569 28.878 10.8293 28.878H27.0732C27.0732 32.7406 24.04 35.8943 20.2256 36.0879L19.8537 36.0976H10.8293C4.84844 36.0976 0 31.2491 0 25.2683V24.6488C5.59512e-05 21.7768 1.14093 19.0221 3.17176 16.9912L15.4058 4.75807C18.4521 1.71179 22.5835 3.97073e-05 26.8916 0H31.5854Z" fill="var(--fill-0, #C8C8C8)"/>
<path id="Vector_2" d="M33.3902 10.8293C35.8822 10.8293 37.9024 12.8495 37.9024 15.3415V36.0975C33.9152 36.0975 30.6829 32.8653 30.6829 28.878V18.0488H27.6653L21.7675 23.9467C20.9212 24.7929 19.7736 25.2683 18.5769 25.2683H11.2602C10.8823 25.2683 10.6931 24.8114 10.9603 24.5442L23.3541 12.1511C24.2003 11.305 25.3477 10.8293 26.5444 10.8293H33.3902Z" fill="var(--fill-0, #C8C8C8)"/>
</g>
</svg>
