<svg preserveAspectRatio="none" width="100%" height="100%" overflow="visible" style="display: block;" viewBox="0 0 118.8 27" fill="none" xmlns="http://www.w3.org/2000/svg">
<g id="logotype">
<path id="Vector" fill-rule="evenodd" clip-rule="evenodd" d="M10.125 18.9C9.22988 18.9 8.37142 18.5444 7.73854 17.9115C7.10559 17.2786 6.75 16.4201 6.75 15.525V0H0V15.525C0 21.1167 4.5333 25.65 10.125 25.65H17.55V18.9H10.125ZM30.375 6.75C29.5772 6.75 28.7873 6.90714 28.0502 7.21244C27.3131 7.51774 26.6435 7.9652 26.0793 8.5293C25.5152 9.09346 25.0677 9.76313 24.7624 10.5002C24.4571 11.2373 24.3 12.0272 24.3 12.825C24.3 13.6228 24.4571 14.4127 24.7624 15.1498C25.0677 15.8869 25.5152 16.5565 26.0793 17.1207C26.6435 17.6848 27.3131 18.1323 28.0502 18.4376C28.7873 18.7429 29.5772 18.9 30.375 18.9C31.9862 18.9 33.5314 18.26 34.6707 17.1207C35.81 15.9814 36.45 14.4362 36.45 12.825C36.45 11.2138 35.81 9.66863 34.6707 8.5293C33.5314 7.39003 31.9862 6.75 30.375 6.75ZM17.55 12.825C17.55 5.74223 23.2922 0 30.375 0C37.4578 0 43.2 5.74223 43.2 12.825C43.2 19.9078 37.4578 25.65 30.375 25.65C23.2922 25.65 17.55 19.9078 17.55 12.825ZM103.275 6.75C101.664 6.75 100.119 7.39003 98.9793 8.5293C97.8399 9.66863 97.2 11.2138 97.2 12.825C97.2 14.4362 97.8399 15.9814 98.9793 17.1207C100.119 18.26 101.664 18.9 103.275 18.9C104.886 18.9 106.431 18.26 107.571 17.1207C108.71 15.9814 109.35 14.4362 109.35 12.825C109.35 11.2138 108.71 9.66863 107.571 8.5293C106.431 7.39003 104.886 6.75 103.275 6.75ZM90.45 12.825C90.45 5.74223 96.1922 0 103.275 0C110.358 0 116.1 5.74223 116.1 12.825C116.1 19.9078 110.358 25.65 103.275 25.65C96.1922 25.65 90.45 19.9078 90.45 12.825ZM57.375 0C50.2922 0 44.55 5.74223 44.55 12.825C44.55 19.9078 50.2922 25.65 57.375 25.65H76.275C77.6041 25.65 78.8859 25.4475 80.0915 25.0722L83.7 27L87.5934 19.7073C88.5823 17.8508 89.1 15.7797 89.1 13.6762V12.825C89.1 5.74223 83.3578 0 76.275 0H57.375ZM82.35 12.825C82.35 11.2138 81.7101 9.66863 80.5707 8.5293C79.4313 7.39003 77.8862 6.75 76.275 6.75H57.375C56.5772 6.75 55.7873 6.90714 55.0502 7.21244C54.3131 7.51774 53.6435 7.9652 53.0793 8.5293C52.5152 9.09346 52.0677 9.76313 51.7624 10.5002C51.4571 11.2373 51.3 12.0272 51.3 12.825C51.3 13.6228 51.4571 14.4127 51.7624 15.1498C52.0677 15.8869 52.5152 16.5565 53.0793 17.1207C53.6435 17.6848 54.3131 18.1323 55.0502 18.4376C55.7873 18.7429 56.5772 18.9 57.375 18.9H76.275C77.8781 18.9001 79.4164 18.2665 80.5538 17.1374C81.6919 16.0083 82.3379 14.4752 82.35 12.8723V12.825Z" fill="var(--fill-0, #C8C8C8)"/>
<path id="Vector_2" d="M118.8 1.6875C118.8 2.13505 118.623 2.56428 118.306 2.88074C117.989 3.19721 117.56 3.375 117.113 3.375C116.665 3.375 116.236 3.19721 115.919 2.88074C115.603 2.56428 115.425 2.13505 115.425 1.6875C115.425 1.23995 115.603 0.810722 115.919 0.494257C116.236 0.17779 116.665 0 117.113 0C117.56 0 117.989 0.17779 118.306 0.494257C118.623 0.810722 118.8 1.23995 118.8 1.6875Z" fill="var(--fill-0, #C8C8C8)"/>
</g>
</svg>
