<svg preserveAspectRatio="none" width="100%" height="100%" overflow="visible" style="display: block;" viewBox="0 0 126.236 56.1169" fill="none" xmlns="http://www.w3.org/2000/svg">
<g id="logotype">
<path id="Vector" d="M74.2993 9.70648C74.5248 9.93255 74.8164 10.084 75.1476 10.0064C78.0218 9.33203 80.8374 8.4139 83.4442 7.01013C83.7578 6.84131 83.9987 6.45641 84.117 6.13572C84.2521 5.7691 84.3068 5.26576 84.1982 4.88368C84.1079 4.56686 83.9518 4.19578 83.637 4.04048C83.3358 3.89187 83.0374 3.90212 82.7376 4.06352C81.9022 4.5135 81.0429 4.91593 80.1644 5.27453C78.498 5.92737 76.7752 6.41421 75.0337 6.82274C74.2786 6.99988 73.8791 7.95663 73.9297 8.66712C73.9553 9.02588 74.0346 9.44125 74.2993 9.70648Z" fill="var(--fill-0, #C8C8C8)"/>
<path id="Vector_2" d="M120.295 10.5597C120.177 10.3096 119.987 10.0071 119.677 9.98101C119.35 9.95352 119.139 10.1265 118.911 10.3403C117.765 11.4159 116.835 12.6938 115.697 13.7757C115.322 14.1097 114.924 14.4143 114.501 14.686C114.633 14.4091 114.767 14.1338 114.909 13.8621C115.344 13.0238 115.829 12.2119 116.356 11.4278C116.562 11.1321 116.761 10.8409 116.896 10.4977C117.085 10.0205 117.095 9.37424 116.892 8.89985C116.761 8.59462 116.4 8.16261 116.005 8.33723C115.787 8.43353 115.656 8.52046 115.481 8.70146C115.425 8.75947 115.372 8.82024 115.318 8.88009C115.192 9.02056 115.067 9.16187 114.942 9.30382C114.691 9.59001 114.443 9.87887 114.196 10.1698C113.727 10.7242 113.267 11.2858 112.807 11.8477C111.906 12.9474 111.005 14.0475 110.042 15.0939C109.775 15.3845 109.504 15.6715 109.226 15.9537C109.392 15.6247 109.552 15.2929 109.708 14.9594C110.326 13.6375 110.886 12.2889 111.531 10.9796C111.719 10.5972 111.915 10.2178 112.12 9.84385C112.219 9.66384 112.32 9.48521 112.423 9.30795C112.478 9.21317 112.537 9.11995 112.59 9.02424C112.747 8.74457 112.823 8.45299 112.899 8.14166C112.978 7.81368 112.938 7.27467 112.791 6.96393C112.657 6.67994 112.489 6.4753 112.174 6.38525C111.689 6.2469 111.262 6.88368 110.972 7.19784C110.781 7.405 110.59 7.61202 110.398 7.81873C109.976 8.27481 109.552 8.73005 109.129 9.18476C108.221 10.1589 107.311 11.131 106.402 12.1039C105.688 12.8672 104.974 13.6297 104.262 14.3947C104.504 13.68 104.742 12.9631 104.977 12.245C105.187 11.5999 105.403 10.9559 105.604 10.3081C105.83 9.58238 105.896 8.63905 105.371 8.01341C105.025 7.59998 104.449 7.48585 103.998 7.81412C103.57 8.12486 103.324 8.66179 103.047 9.10285C102.849 9.41837 102.653 9.73398 102.455 10.0498C102.085 10.6408 101.716 11.232 101.344 11.8221C100.677 12.8838 100.005 13.9433 99.2998 14.9812C98.6407 15.9423 97.9465 16.9053 97.1026 17.712C96.8277 17.9526 96.5326 18.1696 96.2099 18.3412C95.9782 18.4379 95.7373 18.5055 95.4882 18.5386C95.4909 18.5263 95.4928 18.514 95.4955 18.5018C95.5038 18.4688 95.513 18.4357 95.5222 18.4029C95.627 18.0367 95.7548 17.6771 95.8936 17.3224C95.9626 17.1441 96.037 16.9676 96.1115 16.7913L96.1133 16.7875C96.1584 16.687 96.2034 16.5869 96.2494 16.4871C96.8985 15.0832 97.6505 13.7259 98.443 12.399C98.6149 12.1119 98.7878 11.8252 98.967 11.5427C99.1518 11.252 99.2198 10.8745 99.2447 10.5401C99.2686 10.228 99.2585 9.86701 99.1215 9.57797C99.0341 9.3941 98.922 9.21896 98.7547 9.09779C98.523 8.92973 98.1938 8.99096 97.975 9.13971C96.0306 10.4598 94.1055 11.8113 92.2291 13.2269V13.2222C92.2337 13.1782 92.2373 13.134 92.2419 13.09C92.2585 12.9257 92.2787 12.7616 92.3026 12.598C92.3265 12.4352 92.3541 12.273 92.3844 12.1114C92.3992 12.0352 92.4387 11.8746 92.4617 11.775C92.526 11.5454 92.5931 11.3171 92.675 11.0927C92.7025 11.018 92.7329 10.9449 92.7623 10.8711C92.8 10.7869 92.8671 10.6365 92.9011 10.5697C92.9535 10.4673 93.0105 10.3677 93.0675 10.2678C93.3553 9.90195 93.6384 9.53237 93.9133 9.15589C94.1551 8.82364 94.3142 8.4796 94.3794 8.06899C94.4355 7.71248 94.4309 7.22802 94.2719 6.89126C94.1533 6.64115 93.9639 6.33873 93.6541 6.31258C93.336 6.28583 93.1015 6.4493 92.8883 6.67192C92.4773 7.10035 92.1234 7.56803 91.8163 8.06363C90.8279 9.28479 89.7611 10.4366 88.6215 11.5255C88.4869 11.6541 88.3513 11.782 88.2158 11.9098C88.1746 11.3293 88.0342 10.7291 87.7638 10.2244C87.4511 9.64085 87.0105 9.16205 86.3371 9.02277C85.7527 8.90197 85.1838 9.11535 84.6648 9.35493C84.1419 9.59636 83.6703 9.93771 83.2273 10.3027C82.14 11.1984 81.1692 12.2202 80.2578 13.292C80.3779 13.0634 80.4987 12.8349 80.613 12.6035C80.861 12.1016 81.008 11.488 80.8672 10.9282C80.7693 10.5387 80.5923 10.1582 80.1989 10.0095C79.576 9.77425 79.0336 10.4065 78.6533 10.8169C78.1926 11.3144 77.7221 11.7995 77.2803 12.3146C76.7102 12.979 76.1619 13.6619 75.6197 14.3492C74.9913 15.1459 74.372 15.9496 73.7523 16.753C74.1661 15.8772 74.5402 14.9707 74.7101 14.0229C74.836 13.3207 74.8237 12.4424 74.361 11.8533C74.0195 11.4183 73.5242 11.3144 73.0021 11.4215C72.7216 11.4791 72.4567 11.609 72.1982 11.7262C71.9398 11.8435 71.6911 11.9801 71.4477 12.1256C71.0321 12.374 70.6303 12.6459 70.2361 12.9279C70.1859 12.7987 70.1172 12.6793 70.0227 12.5801C69.8217 12.3698 69.523 12.1847 69.2168 12.2871C66.9341 13.0501 64.7939 14.2199 62.94 15.7559C61.9567 16.5706 61.0354 17.4447 60.212 18.4224C59.2967 19.5095 58.4371 20.6746 57.8791 21.9886C57.6487 22.531 57.4927 23.1301 57.4328 23.7294C56.4887 24.4529 55.5407 25.1713 54.59 25.8861C55.9085 23.8659 57.2071 21.8327 58.4662 19.7751C58.8466 19.1536 59.2286 18.5317 59.5783 17.8921C59.7644 17.5517 59.9567 17.2024 60.0837 16.8359C60.2981 16.2176 60.3405 15.3768 59.8784 14.8468C59.6499 14.5848 59.37 14.4925 59.04 14.5395C58.7815 14.5764 58.5812 14.7642 58.3943 14.9243C58.0848 15.1893 57.8272 15.5233 57.5682 15.836C57.3722 16.0729 57.1798 16.3126 56.9882 16.5531C56.8592 16.2053 56.6905 15.8805 56.4711 15.5674C56.244 15.2431 55.9186 14.9396 55.5599 14.7686C54.2149 14.1272 52.7667 14.8529 51.6619 15.6521C50.5956 16.4233 49.6386 17.3346 48.7185 18.2753C48.674 18.3091 48.6302 18.345 48.5887 18.3851C48.417 18.5512 48.238 18.7084 48.0532 18.859C47.778 19.0561 47.4872 19.2273 47.1768 19.3626C46.9246 19.4437 46.6662 19.4962 46.402 19.5181C46.2547 19.5141 46.1081 19.5036 45.9633 19.4811C45.9669 19.3685 45.9688 19.2556 45.9678 19.1426C45.9579 18.0293 45.6742 16.7897 44.9536 15.9134C44.5266 15.3943 43.9013 15.134 43.2365 15.1952C42.8823 15.2278 42.5677 15.3936 42.305 15.6282C42.1666 15.6369 42.0306 15.6755 41.9089 15.757C39.9376 17.0782 38.1406 18.617 36.5281 20.3375C36.4913 20.3686 36.456 20.4017 36.4242 20.4388C36.3886 20.4803 36.3526 20.5217 36.3169 20.5632C35.9104 21.0054 35.517 21.4603 35.1351 21.9255C33.358 23.9572 31.53 25.9461 29.5358 27.7679C28.8237 28.4183 28.09 29.0451 27.3309 29.6402C26.4375 30.3225 25.5077 30.9576 24.5268 31.5079C24.2074 31.6871 23.9658 32.0462 23.8409 32.3803C23.704 32.7464 23.6504 33.2514 23.7628 33.6327C23.8573 33.9536 24.0212 34.3231 24.341 34.4786C24.6437 34.6257 24.9621 34.6276 25.2623 34.4591C27.2916 33.3205 29.1315 31.8387 30.8443 30.2719C31.3203 29.8365 31.7864 29.3903 32.2455 28.9376C32.2662 29.0237 32.2889 29.1095 32.3158 29.1939C32.6292 30.1783 33.2982 31.0558 34.2608 31.4821C35.2145 31.9044 36.2703 31.9316 37.2737 31.6689C40.0414 30.944 42.059 28.8436 43.5132 26.4635C43.3382 27.2826 43.2662 28.1168 43.4738 28.9484C43.7027 29.8655 44.2692 30.7579 45.2626 30.9414C45.988 31.0754 46.7077 30.7548 47.3375 30.4339C48.2606 29.9636 49.0948 29.3067 49.8729 28.6118C49.5026 29.1658 49.1307 29.7188 48.7591 30.2719C47.4164 31.2926 46.0806 32.323 44.7588 33.3711C43.124 33.8091 41.4937 34.2641 39.8694 34.7403C38.1022 35.2583 36.3417 35.7997 34.5896 36.3671C32.9098 36.911 31.2377 37.4785 29.575 38.0725C27.8986 38.6716 26.2321 39.2986 24.5757 39.951C23.0801 40.5401 21.5941 41.1538 20.1204 41.7955C18.7157 42.407 17.3222 43.0441 15.9427 43.7103C14.6456 44.3367 13.3609 44.9889 12.0924 45.6714C10.899 46.3134 9.71983 46.9818 8.55933 47.6817C8.00784 48.0144 7.46067 48.3542 6.91839 48.7017C6.92686 48.6901 6.93533 48.6785 6.94381 48.6667C8.50866 46.5077 10.0559 44.3359 11.5992 42.1616C12.7614 40.5237 13.9225 38.8853 15.0864 37.2486C15.1408 37.21 15.1953 37.1716 15.2496 37.1328C16.7584 36.0538 18.2355 34.9316 19.6958 33.788C21.2378 32.5806 22.7556 31.3425 24.2529 30.0802C25.8443 28.7386 27.4126 27.3694 28.9572 25.9741C30.5317 24.5518 32.0819 23.1024 33.6032 21.6234C35.0947 20.1735 36.5587 18.6953 37.9856 17.1817C39.3286 15.7571 40.6393 14.3015 41.8987 12.8025C43.1011 11.3714 44.2655 9.9036 45.3468 8.37839C45.7961 7.74428 46.2306 7.09946 46.6428 6.44039C47.1583 5.6159 47.7401 4.73985 47.9993 3.79915C48.2015 3.06518 48.3542 2.25124 48.1044 1.50612C47.9892 1.16253 47.8487 0.829057 47.5824 0.570627C47.3128 0.309074 47.0777 0.194199 46.7257 0.0828906C46.3132 -0.0475879 45.8331 -0.00434235 45.4143 0.0779868C44.8945 0.18023 44.3864 0.383676 43.9091 0.60867C42.7109 1.17338 41.63 1.98078 40.6071 2.81299C39.5935 3.63792 38.6305 4.53165 37.6956 5.4444C35.7974 7.29741 33.958 9.21032 32.1724 11.1719C30.415 13.1028 28.7097 15.0808 27.0482 17.0948C25.3341 19.1726 23.6642 21.2873 22.0271 23.4264C20.4549 25.4809 18.9143 27.5595 17.3924 29.6516C16.1708 31.3309 14.9627 33.0199 13.7583 34.7113C12.5664 35.5466 11.3546 36.3559 10.1024 37.0974C9.24976 37.6022 8.37446 38.0883 7.45323 38.4582C7.15408 38.5672 6.84364 38.6615 6.52785 38.6954C6.49976 38.6933 6.47197 38.69 6.44418 38.6858C6.33896 38.6456 6.22944 38.6319 6.11516 38.6482C5.9499 38.6345 5.79535 38.675 5.65165 38.7697C5.34195 38.9422 5.07534 39.3119 4.96434 39.6419C4.83192 40.0358 4.76654 40.4886 4.88646 40.8943C4.97503 41.1941 5.14578 41.6231 5.46648 41.7405C5.65521 41.8096 5.83042 41.8863 6.02986 41.9001C6.24832 41.9154 6.47375 41.9058 6.69146 41.8778C7.00785 41.8373 7.31696 41.7412 7.61596 41.6327C8.22897 41.4104 8.8207 41.1434 9.39897 40.8483C9.03187 41.3651 8.66542 41.8824 8.29763 42.3987C6.75566 44.5626 5.20493 46.7203 3.63294 48.8625C2.8367 49.9475 2.03495 51.0285 1.22637 52.1042C0.737446 52.7546 0.119679 53.4123 0.0207047 54.2568C-0.0405216 54.7791 0.0201109 55.3734 0.392522 55.7805C0.63446 56.0448 0.99276 56.1669 1.3457 56.098C1.72094 56.0247 2.03376 55.7572 2.31701 55.5233C2.73609 55.1773 3.15813 54.8355 3.58643 54.501C4.67797 53.6634 5.80204 52.8686 6.95093 52.1118C8.2532 51.254 9.58606 50.4429 10.9405 49.6701C12.396 48.8398 13.8764 48.0534 15.3751 47.304C16.9882 46.4973 18.6222 45.7331 20.2719 45.0048C22.0232 44.2315 23.7922 43.4987 25.5747 42.8004C25.7377 42.7366 25.9007 42.6735 26.0637 42.6103C28.1959 41.7896 30.346 41.0159 32.5105 40.2844C34.6319 39.5676 36.7674 38.8924 38.9127 38.2507C37.868 39.1786 36.8423 40.1279 35.843 41.1046C34.4626 42.454 33.0847 43.8332 31.9224 45.378C30.6093 47.1234 29.5599 49.0741 29.1042 51.2253C28.8782 52.2927 28.8733 53.5102 29.3612 54.5101C29.5891 54.9775 29.9297 55.4369 30.4072 55.669C30.7566 55.8389 31.1268 55.9474 31.5152 55.9411C31.9275 55.9346 32.309 55.8857 32.6951 55.7372C33.1067 55.579 33.5002 55.3946 33.8713 55.1562C34.571 54.7065 35.2119 54.1456 35.7938 53.5528C37.1317 52.1898 38.1558 50.5627 39.1876 48.9671C41.3459 45.6297 43.5609 42.3297 45.7841 39.0356C46.524 37.9392 47.2648 36.8436 48.0053 35.7476C50.3013 35.1666 52.6057 34.618 54.9174 34.1029C57.6908 33.485 60.4743 32.9124 63.2655 32.3815C65.2746 31.9992 67.2881 31.64 69.3048 31.3C68.8999 32.3793 68.5834 33.4989 68.5342 34.6503C68.5214 34.9497 68.5484 35.2575 68.6086 35.5497C68.7019 36.0024 69.0071 36.5027 69.5238 36.4784C70.0348 36.4545 70.4346 35.9253 70.57 35.4683C71.0324 33.908 71.5509 32.3656 72.1129 30.8392C85.5125 28.7083 99.0489 26.5708 112.606 26.0383C113.376 26.008 113.846 25.5165 113.811 25.0672C113.76 24.4096 113.412 23.9744 112.554 23.9744C99.5196 24.4871 86.5555 25.9147 73.5834 27.4031C73.7497 27.0988 73.9176 26.7955 74.0879 26.4935C74.8264 25.1838 75.6036 23.8957 76.4121 22.6279C76.5194 22.9659 76.6581 23.2925 76.8419 23.5978C77.064 23.9667 77.3533 24.3247 77.7573 24.5033C78.1872 24.6934 78.6122 24.7373 79.0756 24.6269C80.0061 24.4053 80.7934 23.7291 81.4795 23.1022C82.2548 22.394 82.9413 21.589 83.5925 20.7672C84.2622 19.9217 84.9003 19.0497 85.5132 18.1602C86.1835 17.3637 86.8995 16.6066 87.6554 15.8824C88.5085 15.0652 89.3804 14.2691 90.2223 13.4421C90.1899 13.9018 90.1784 14.3602 90.1839 14.8139C88.9243 15.8225 87.6945 16.8747 86.5555 18.0165C85.7962 18.7773 85.0207 19.6182 84.5303 20.5846C84.2261 21.1839 84.0366 21.8091 84.018 22.4841C84.004 22.9899 84.1226 23.552 84.442 23.9581C84.8861 24.5228 85.5833 24.5537 86.2374 24.4864C86.8426 24.4242 87.4345 24.2188 87.9882 23.9744C88.7281 23.6478 89.4416 23.2589 90.0827 22.7634C90.8076 22.2032 91.4357 21.5482 91.9091 20.7614C92.4957 19.7846 92.7246 18.6061 92.5527 17.4822C92.4994 17.1332 92.4396 16.7861 92.3854 16.438C93.1769 15.8375 93.9786 15.2504 94.7849 14.672C94.7637 14.7177 94.7417 14.7629 94.7205 14.8088C94.327 15.6798 93.94 16.5684 93.7028 17.497C93.4408 18.5225 93.2266 19.6799 93.6513 20.696C93.7984 21.0487 94.0503 21.4103 94.4052 21.5789C94.8143 21.7731 95.1876 21.7733 95.6316 21.6962C96.3 21.5802 96.9389 21.2189 97.462 20.797C98.1874 20.2117 98.8089 19.5097 99.3771 18.7737C100.164 17.753 100.877 16.6733 101.578 15.592C101.661 15.464 101.743 15.3352 101.824 15.207C101.626 15.7612 101.423 16.314 101.211 16.8637C101.069 17.2335 100.923 17.6021 100.774 17.9693C100.705 18.1397 100.635 18.3099 100.563 18.4796C100.526 18.5686 100.489 18.6575 100.451 18.7462C100.399 18.8672 100.229 19.2564 100.458 18.7305C100.284 19.1304 100.159 19.5043 100.164 19.9487C100.169 20.2643 100.242 20.725 100.463 20.977C100.644 21.1846 100.9 21.3524 101.191 21.2579C101.479 21.165 101.735 20.925 101.871 20.6557C102.133 20.3127 102.438 19.9945 102.724 19.6758C103.363 18.9615 104.014 18.2564 104.666 17.5526C105.656 16.4832 106.651 15.418 107.646 14.3534C107.507 14.6244 107.363 14.8941 107.215 15.1603C107.01 15.5267 106.771 15.8789 106.596 16.2612C106.253 17.0117 106.056 17.8341 106.218 18.659C106.319 19.1739 106.588 19.747 107.071 20.0072C107.572 20.2778 108.068 20.1861 108.554 19.94C108.957 19.7363 109.271 19.3957 109.594 19.087C110.499 18.2197 111.345 17.2937 112.162 16.342C112.307 16.8979 112.666 17.4169 113.185 17.6801C113.423 17.8012 113.698 17.9133 113.97 17.9261C114.376 17.9452 114.663 17.8577 115.006 17.6414C115.959 17.0425 116.784 16.2538 117.538 15.4241C118.331 14.5503 119.074 13.6336 119.937 12.8242C120.195 12.5818 120.35 12.0679 120.403 11.7374C120.459 11.3809 120.454 10.8964 120.295 10.5597ZM25.4898 23.1596C25.6305 22.9801 25.7719 22.8012 25.9133 22.6221C27.8394 20.1916 29.8188 17.8027 31.8696 15.4761C33.9756 13.0871 36.1563 10.7633 38.4215 8.52432C39.6428 7.31717 40.8927 6.12295 42.2459 5.06263C43.0828 4.42837 43.9804 3.82843 44.954 3.42867C45.1744 3.35214 45.4001 3.28913 45.6298 3.25034C45.2675 3.92458 44.851 4.57534 44.4316 5.21272C43.9146 5.99827 43.3697 6.76524 42.8066 7.51825C42.5146 7.90864 42.2166 8.29472 41.9154 8.6781C40.6641 10.2516 39.3484 11.7734 37.9934 13.2581C36.4905 14.9049 34.9394 16.5076 33.3553 18.0763C31.7206 19.6953 30.0502 21.2781 28.3506 22.829C26.6758 24.3572 24.9728 25.8548 23.2422 27.3197C22.4254 28.0109 21.6028 28.6952 20.7732 29.3712C22.3176 27.2798 23.8853 25.2053 25.4898 23.1596ZM60.6932 21.7943C61.5584 20.643 62.5478 19.5905 63.6423 18.6549C64.9364 17.593 66.3628 16.7008 67.8882 16.0123C67.8941 16.0802 67.9037 16.1459 67.9172 16.2095C67.7444 16.6942 67.5513 17.1718 67.3404 17.6419C66.8358 18.6994 66.2376 19.7095 65.5511 20.6593C64.7368 21.7341 63.8111 22.7206 62.7819 23.5924C62.2873 23.9985 61.7686 24.391 61.1913 24.667C60.9929 24.7397 60.7901 24.7912 60.5799 24.8157C60.4555 24.8089 60.3338 24.7887 60.2128 24.7571C60.1235 24.7133 60.0387 24.6626 59.958 24.6045C59.8932 24.5368 59.8336 24.4652 59.7779 24.39C59.7408 24.3196 59.7075 24.2477 59.6767 24.1747C59.6575 24.1024 59.6405 24.0296 59.6265 23.9562C59.625 23.9221 59.6241 23.8878 59.6236 23.8538C59.6349 23.7699 59.6487 23.6863 59.6653 23.6033C59.7092 23.4661 59.7588 23.3311 59.814 23.1981C60.0635 22.7047 60.3693 22.2423 60.6932 21.7943ZM40.8883 25.8065C40.4062 26.3956 39.8717 26.9389 39.2751 27.4123C38.7672 27.7789 38.2223 28.0881 37.6423 28.326C37.1949 28.4831 36.734 28.5943 36.2611 28.6297C35.9719 28.624 35.6868 28.5855 35.409 28.5058C35.2248 28.4265 35.051 28.3286 34.8872 28.2125C34.8077 28.1377 34.7335 28.0581 34.6641 27.9742C34.6306 27.9163 34.5985 27.8576 34.5698 27.7975C34.5609 27.7652 34.5512 27.7327 34.5434 27.7002C34.5412 27.6631 34.5399 27.6255 34.539 27.5882C34.5485 27.5186 34.5597 27.4494 34.5732 27.3804C34.6299 27.2047 34.6965 27.0327 34.7714 26.8637C35.1986 26.0519 35.7589 25.3045 36.3273 24.5838C36.4387 24.4448 36.5528 24.3082 36.6665 24.1713C36.9469 23.8489 37.2258 23.525 37.5047 23.2012C38.6534 21.9312 39.9101 20.7613 41.2613 19.707C41.3982 19.6033 41.5362 19.5013 41.6749 19.4002C41.7617 19.6408 41.8653 19.8745 41.9843 20.0964C42.2847 20.6562 42.6827 21.1582 43.1569 21.5769C42.9462 22.1755 42.6952 22.7608 42.4218 23.3323C41.9838 24.2002 41.4789 25.0337 40.8883 25.8065ZM48.3602 26.3632C47.7474 26.8544 47.0935 27.31 46.3745 27.6293C46.221 27.6862 46.0652 27.7308 45.903 27.7541C45.8478 27.7498 45.7932 27.742 45.739 27.7307C45.7141 27.7173 45.6893 27.7037 45.6655 27.6886C45.66 27.6823 45.6548 27.6754 45.6493 27.669C45.6438 27.6579 45.6375 27.6472 45.6324 27.636C45.6248 27.6057 45.6165 27.5755 45.6101 27.5449C45.606 27.476 45.6042 27.4069 45.6043 27.3378C45.6231 27.1999 45.6496 27.0632 45.6798 26.9272C45.8082 26.4659 45.9714 26.0167 46.1662 25.5794C46.4934 24.9257 46.8856 24.3087 47.3156 23.7179C47.9212 22.9252 48.5806 22.1846 49.2659 21.4622C49.481 21.2883 49.6892 21.1058 49.8878 20.9135C50.0021 20.803 50.0986 20.6669 50.1784 20.5195C50.736 19.9586 51.3106 19.4144 51.9187 18.909C52.4124 18.5174 52.9356 18.1525 53.5088 17.8894C53.7282 17.8089 53.9538 17.7498 54.1862 17.7247C54.2896 17.7308 54.3918 17.7455 54.4923 17.7703C54.5664 17.8067 54.6373 17.8485 54.7051 17.8956C54.7605 17.9526 54.8123 18.0129 54.8605 18.076C54.8961 18.1428 54.928 18.2111 54.9579 18.2804C54.9882 18.3892 55.0133 18.4991 55.0333 18.6103C55.0391 18.7014 55.0417 18.7926 55.0414 18.8839C55.0371 18.9215 55.034 18.9592 55.0288 18.9965C53.3633 21.0846 51.6894 23.1778 49.7883 25.0572C49.3295 25.5109 48.8556 25.9493 48.3602 26.3632ZM38.5868 45.4472C37.8444 46.5824 37.1352 47.7436 36.3644 48.8595C36.1918 49.1093 36.0147 49.3555 35.8341 49.5995C35.2205 50.3973 34.5497 51.1493 33.7799 51.7997C33.4009 52.096 32.9985 52.3645 32.5625 52.5682C32.3366 52.6514 32.1042 52.7112 31.8651 52.7363C31.7467 52.73 31.63 52.7136 31.5152 52.6851C31.4583 52.6587 31.4026 52.6294 31.3488 52.5972C31.3337 52.5793 31.3192 52.5607 31.3047 52.5423C31.2846 52.5037 31.2657 52.4643 31.2481 52.4245C31.239 52.3879 31.2313 52.351 31.2238 52.3142C31.2201 52.242 31.2187 52.1696 31.2192 52.0974C31.2411 51.9109 31.2722 51.726 31.3117 51.5425C31.4601 51.0076 31.6519 50.4822 31.879 49.9757C32.2881 49.1484 32.7804 48.3658 33.3249 47.6208C34.4296 46.1783 35.743 44.8838 37.0397 43.6161C38.3877 42.2984 39.7836 41.03 41.2099 39.7976C41.9803 39.132 42.7606 38.4778 43.5469 37.831C43.63 37.763 43.7141 37.6962 43.7974 37.6283C42.8206 39.0767 41.8454 40.5262 40.8769 41.9803C40.109 43.1329 39.345 44.2881 38.5868 45.4472ZM57.2255 30.3859C55.2997 30.7959 53.3783 31.2278 51.4623 31.6817C52.8338 30.6507 54.2072 29.6227 55.5782 28.591C56.4106 27.9646 57.2402 27.3344 58.0674 26.701C58.4662 27.3104 58.9763 27.7641 59.7043 27.9627C60.4555 28.1675 61.2467 27.9058 61.9157 27.5726C62.4558 27.3034 62.9396 26.9284 63.4073 26.5505C63.9207 26.1356 64.4205 25.7041 64.893 25.2431C65.7937 24.364 66.5875 23.3883 67.3116 22.3599C68.5939 20.5389 69.5853 18.4733 70.2084 16.3294C70.5896 16.0432 70.9759 15.7637 71.3711 15.4975C71.6167 15.3321 71.8665 15.1703 72.1225 15.0195C71.6329 16.0793 71.0854 17.1124 70.5353 18.1417C69.8778 19.3723 69.2082 20.5966 68.5671 21.8358C68.2318 22.4841 67.9041 23.1364 67.5959 23.7981C67.4438 24.1246 67.3363 24.4351 67.3107 24.7995C67.2887 25.1139 67.3052 25.4767 67.4512 25.7643C67.5465 25.9523 67.6693 26.1272 67.8448 26.2488C68.0924 26.4203 68.4336 26.3608 68.6718 26.2143C69.0622 25.9738 69.4104 25.659 69.7467 25.3507C70.0967 25.03 70.4257 24.6866 70.7457 24.3362C71.5473 23.4585 72.2958 22.5328 73.0338 21.6017C73.5451 20.9564 74.0489 20.305 74.5514 19.6527C73.425 21.9978 72.3477 24.3692 71.3651 26.7785C71.1828 27.1305 71.0044 27.4843 70.8298 27.84C70.5249 27.8897 70.2199 27.9388 69.915 27.9892C67.7605 28.347 65.6097 28.7281 63.4637 29.1337C61.3796 29.5277 59.2999 29.9443 57.2255 30.3859ZM80.932 20.0559C80.7119 20.2823 80.4837 20.5005 80.2476 20.71C79.9462 20.9593 79.6262 21.1909 79.2773 21.3671C79.1449 21.4176 79.0087 21.4561 78.8686 21.4773C78.8114 21.4732 78.7546 21.4653 78.6987 21.4529C78.668 21.4361 78.6383 21.418 78.6095 21.3985C78.569 21.3532 78.5309 21.3065 78.4957 21.257C78.4528 21.1704 78.415 21.0812 78.3808 20.9907C78.3 20.6972 78.2448 20.3973 78.2051 20.0955C78.2007 20.048 78.1963 20.0007 78.1926 19.9533C78.3827 19.6794 78.5727 19.4055 78.7664 19.1343C79.4048 18.2503 80.0624 17.3801 80.7502 16.5339C81.3947 15.741 82.064 14.9665 82.7788 14.236C83.1009 13.9067 83.4339 13.588 83.7798 13.2838C84.2065 12.9255 84.6619 12.5887 85.1621 12.3436C85.3258 12.2795 85.4954 12.231 85.6693 12.207C85.7265 12.2107 85.7831 12.2186 85.839 12.2305C85.8677 12.2461 85.896 12.2623 85.9232 12.2806C85.9425 12.3031 85.9616 12.3257 85.9794 12.3495C86.0001 12.3929 86.0192 12.4368 86.037 12.4814C86.0548 12.5516 86.0703 12.6224 86.0833 12.6937C86.085 12.7375 86.0859 12.7816 86.0859 12.8254C86.0804 12.8631 86.0741 12.9009 86.0676 12.9385C86.0479 12.999 86.0258 13.0588 86.003 13.1181C85.7709 13.5634 85.4714 13.9853 85.2024 14.4042C84.8596 14.9383 84.5095 15.4678 84.1513 15.9917C83.9433 16.2959 83.7316 16.5975 83.5174 16.8976C82.72 17.9994 81.8804 19.0801 80.932 20.0559ZM90.6489 18.549C90.6423 18.563 90.6356 18.577 90.6291 18.5908C90.6311 18.5825 90.6331 18.5743 90.635 18.5664C90.7422 18.311 90.6967 18.4483 90.6489 18.549ZM90.5831 18.679C90.5429 18.7568 90.5 18.8329 90.4542 18.9073C90.2898 19.1279 90.1066 19.3335 89.9098 19.5258C89.4597 19.9243 88.962 20.2686 88.4369 20.5603C88.3014 20.6357 88.163 20.7057 88.0239 20.7741C87.6722 20.9335 87.3086 21.0728 86.9355 21.1742C87.1913 20.8925 87.4579 20.6205 87.7274 20.3549C87.9272 20.158 88.1319 19.9659 88.3374 19.7749C89.0277 19.1451 89.7387 18.5379 90.4638 17.9469C90.5041 18.1908 90.5455 18.4346 90.5831 18.679ZM113.953 15.9332C113.941 15.9656 113.93 15.9985 113.917 16.0306C113.8 16.295 113.866 16.1374 113.953 15.9332Z" fill="var(--fill-0, #C8C8C8)"/>
<path id="Vector_3" d="M123.278 6.25236C123.364 6.16473 123.46 6.05275 123.579 5.92131C123.699 5.78986 123.817 5.65355 123.947 5.50749C124.071 5.36145 124.19 5.22026 124.298 5.08882C124.406 4.95737 124.498 4.84053 124.573 4.74316C124.648 4.65066 124.686 4.58737 124.697 4.5533C124.708 4.51922 124.714 4.49001 124.714 4.46566C124.714 4.37316 124.643 4.32448 124.503 4.32448C124.308 4.32448 124.06 4.37803 123.763 4.48513L123.768 4.52895C123.768 4.5533 123.752 4.61171 123.714 4.70908C123.682 4.81131 123.639 4.9379 123.585 5.08882C123.45 5.49289 123.347 5.88236 123.278 6.25236ZM122.845 7.81025C123.094 7.81025 123.342 7.72749 123.59 7.56196C123.838 7.39644 124.076 7.16762 124.303 6.87552C123.818 7.04488 123.468 7.43233 123.169 7.56683L123.094 7.57657C122.894 7.57657 122.753 7.45485 122.678 7.21631C122.618 7.04592 122.586 6.83657 122.586 6.58828C122.586 6.13065 122.646 5.67302 122.77 5.22026C122.834 4.94276 122.91 4.70908 123.002 4.51434C123.094 4.32448 123.175 4.2125 123.255 4.17843L123.25 4.13948C123.25 4.11027 123.266 4.08592 123.304 4.06159C123.353 4.02751 123.477 3.98855 123.665 3.94474C123.844 3.9204 124.001 3.91067 124.135 3.91067C124.346 3.91067 124.541 3.935 124.714 3.97882C124.908 4.03724 125.048 4.13461 125.145 4.27093C125.199 4.35856 125.227 4.45105 125.227 4.53869C125.227 4.82592 125.005 5.23 124.562 5.74605C124.383 5.94565 124.178 6.1696 123.941 6.41789L124.314 6.31565C124.449 6.28157 124.584 6.26696 124.714 6.26696C124.843 6.04789 124.956 5.82395 125.064 5.6C125.264 5.16184 125.409 4.76751 125.49 4.42185C125.518 4.28066 125.534 4.15408 125.534 4.05184C125.512 3.79383 125.421 3.61856 125.259 3.51632C125.156 3.4579 125.026 3.42869 124.87 3.42869C124.691 3.42869 124.497 3.46764 124.276 3.54554C124.011 3.63803 123.747 3.76461 123.477 3.935C123.207 4.1054 122.975 4.28553 122.786 4.48026C122.57 4.69447 122.419 4.88921 122.343 5.06448C122.122 5.71197 121.998 6.26696 121.981 6.71973C121.981 6.89499 121.992 7.04104 122.019 7.16276C122.073 7.42565 122.203 7.61065 122.419 7.71775C122.537 7.78104 122.678 7.81025 122.845 7.81025ZM123.169 8.36524C122.958 8.36524 122.759 8.33604 122.564 8.28248C122.257 8.19972 121.992 8.05367 121.76 7.84433C121.517 7.62525 121.344 7.34288 121.242 6.99723C121.166 6.77328 121.134 6.52986 121.134 6.27184C121.134 6.10631 121.145 5.92618 121.177 5.74118C121.145 5.73144 121.112 5.7217 121.085 5.7071C121.004 5.66329 120.961 5.58052 120.961 5.46855C120.961 5.28355 121.064 5.04013 121.269 4.73342C121.425 4.49974 121.625 4.26605 121.874 4.02751C122.116 3.78895 122.392 3.57962 122.699 3.38974C123.212 3.07816 123.725 2.92238 124.238 2.92238C124.46 2.92238 124.665 2.93699 124.864 2.97593C125.437 3.08304 125.842 3.27777 126.074 3.56501C126.182 3.69646 126.236 3.85711 126.236 4.04698V4.13948C126.161 4.88921 125.977 5.6 125.691 6.2767C125.523 6.67591 125.318 7.02643 125.075 7.33801C124.541 8.02446 123.904 8.36524 123.169 8.36524Z" fill="var(--fill-0, #C8C8C8)"/>
<path id="Vector_4" d="M118.232 23.7253C117.457 23.6576 116.664 23.6635 115.899 23.7643C115.605 23.803 115.353 23.9529 115.185 24.1323C114.998 24.335 114.874 24.6387 114.893 24.889C114.91 25.12 114.978 25.3849 115.205 25.5592C115.401 25.7114 115.661 25.8179 115.952 25.7796C116.376 25.7238 116.805 25.6983 117.236 25.7001C117.403 25.7063 117.568 25.7154 117.734 25.7298C118.033 25.756 118.291 25.6953 118.516 25.5458C118.753 25.3876 118.938 25.1181 118.985 24.8823C119.035 24.6361 119.035 24.3554 118.867 24.1282C118.736 23.9485 118.525 23.7507 118.232 23.7253Z" fill="var(--fill-0, #C8C8C8)"/>
</g>
</svg>
