<svg preserveAspectRatio="none" width="100%" height="100%" overflow="visible" style="display: block;" viewBox="0 0 174.14 35.3051" fill="none" xmlns="http://www.w3.org/2000/svg">
<g id="logotype">
<path id="Vector" d="M166.492 7.47875C168.783 7.47875 170.625 8.18619 172.017 9.60107C173.432 10.9936 174.14 12.9475 174.14 15.4628V26.4114H169.423V16.1029C169.423 14.643 169.052 13.5314 168.311 12.7678C167.57 11.9817 166.56 11.5887 165.279 11.5887C164 11.5887 162.977 11.9817 162.214 12.7678C161.473 13.5314 161.103 14.643 161.103 16.1029V26.4114H156.386V16.1029C156.386 14.643 156.015 13.5314 155.274 12.7678C154.533 11.9817 153.522 11.5887 152.242 11.5887C150.94 11.5887 149.907 11.9817 149.143 12.7678C148.402 13.5314 148.031 14.643 148.031 16.1029V26.4114H143.315V7.74821H148.031V10.0053C148.638 9.21933 149.413 8.60167 150.356 8.15254C151.322 7.70331 152.377 7.47875 153.522 7.47875C154.982 7.47875 156.285 7.7932 157.43 8.422C158.576 9.02841 159.463 9.90427 160.091 11.0497C160.698 9.97166 161.574 9.10695 162.719 8.45565C163.887 7.80435 165.145 7.47875 166.492 7.47875Z" fill="var(--fill-0, #C8C8C8)"/>
<path id="Vector_2" d="M139.84 7.74823V26.4115H135.091V24.0532C134.485 24.8618 133.687 25.5018 132.699 25.9735C131.733 26.4226 130.677 26.6473 129.532 26.6473C128.072 26.6473 126.781 26.3441 125.658 25.7377C124.535 25.1088 123.648 24.1992 122.997 23.0089C122.368 21.7961 122.054 20.3588 122.054 18.6969V7.74823H126.77V18.0231C126.77 19.5054 127.14 20.6508 127.881 21.4593C128.623 22.2453 129.633 22.6383 130.913 22.6383C132.216 22.6383 133.238 22.2453 133.979 21.4593C134.721 20.6508 135.091 19.5054 135.091 18.0231V7.74823H139.84Z" fill="var(--fill-0, #C8C8C8)"/>
<path id="Vector_3" d="M112.186 26.7146C110.658 26.7146 109.288 26.4451 108.075 25.9061C106.863 25.3446 105.897 24.5922 105.178 23.649C104.482 22.7057 104.1 21.6614 104.033 20.516H108.783C108.873 21.2347 109.221 21.8298 109.828 22.3015C110.456 22.7731 111.231 23.0089 112.151 23.0089C113.05 23.0089 113.747 22.8292 114.24 22.4699C114.757 22.1105 115.016 21.6502 115.016 21.0887C115.016 20.4823 114.701 20.0331 114.072 19.7412C113.466 19.4268 112.489 19.0899 111.141 18.7305C109.749 18.3937 108.603 18.0456 107.705 17.6862C106.829 17.3269 106.065 16.7766 105.414 16.0355C104.785 15.2943 104.471 14.2949 104.471 13.0372C104.471 12.0042 104.763 11.0609 105.347 10.2075C105.953 9.35401 106.806 8.68031 107.907 8.18619C109.03 7.69207 110.344 7.44501 111.848 7.44501C114.072 7.44501 115.846 8.00651 117.171 9.12944C118.497 10.23 119.227 11.7234 119.361 13.61H114.847C114.78 12.8688 114.465 12.2849 113.904 11.8582C113.365 11.409 112.635 11.1844 111.714 11.1844C110.861 11.1844 110.198 11.3417 109.726 11.6561C109.277 11.9705 109.052 12.4084 109.052 12.9699C109.052 13.5988 109.367 14.0816 109.995 14.4185C110.625 14.7329 111.602 15.0585 112.927 15.3954C114.274 15.7323 115.386 16.0804 116.262 16.4398C117.138 16.7991 117.89 17.3605 118.519 18.1241C119.17 18.8653 119.507 19.8534 119.53 21.0887C119.53 22.1667 119.227 23.1324 118.62 23.9859C118.036 24.8393 117.182 25.5131 116.059 26.0072C114.959 26.4788 113.668 26.7146 112.186 26.7146Z" fill="var(--fill-0, #C8C8C8)"/>
<path id="Vector_4" d="M88.1073 10.4433C88.7141 9.58982 89.5449 8.88238 90.6006 8.32096C91.6781 7.73705 92.9025 7.44501 94.2721 7.44501C95.8665 7.44501 97.3041 7.83809 98.5847 8.62417C99.8872 9.41015 100.908 10.5331 101.65 11.9929C102.414 13.4303 102.795 15.1034 102.795 17.0124C102.795 18.9214 102.414 20.617 101.65 22.0993C100.908 23.5592 99.8872 24.6933 98.5847 25.5018C97.3041 26.3103 95.8665 26.7146 94.2721 26.7146C92.9025 26.7146 91.6899 26.4338 90.6342 25.8724C89.6011 25.3109 88.7586 24.6035 88.1073 23.7501V35.3051H83.3911V7.74821H88.1073V10.4433ZM97.978 17.0124C97.978 15.8895 97.7422 14.9238 97.2705 14.1153C96.8216 13.2843 96.2148 12.6555 95.4511 12.2288C94.7101 11.802 93.902 11.5887 93.0259 11.5887C92.1724 11.5887 91.3643 11.8133 90.6006 12.2624C89.8587 12.6891 89.2529 13.318 88.7812 14.1489C88.3323 14.9799 88.1073 15.9569 88.1073 17.0798C88.1073 18.2027 88.3323 19.1797 88.7812 20.0107C89.2529 20.8417 89.8587 21.4817 90.6006 21.9309C91.3643 22.3576 92.1724 22.571 93.0259 22.571C93.902 22.571 94.7101 22.3464 95.4511 21.8972C96.2148 21.448 96.8216 20.8079 97.2705 19.977C97.7422 19.146 97.978 18.1579 97.978 17.0124Z" fill="var(--fill-0, #C8C8C8)"/>
<path id="Vector_5" d="M77.5855 5.52486C76.7547 5.52486 76.0591 5.26657 75.4977 4.75002C74.958 4.21101 74.6886 3.54848 74.6886 2.76242C74.6886 1.97637 74.958 1.32507 75.4977 0.808523C76.0591 0.269516 76.7547 7.80682e-06 77.5855 7.80682e-06C78.4172 7.80682e-06 79.102 0.269516 79.6407 0.808523C80.2021 1.32507 80.4833 1.97637 80.4833 2.76242C80.4833 3.54848 80.2021 4.21101 79.6407 4.75002C79.102 5.26657 78.4172 5.52486 77.5855 5.52486ZM79.9101 7.74822V26.4114H75.1938V7.74822H79.9101Z" fill="var(--fill-0, #C8C8C8)"/>
<path id="Vector_6" d="M63.1773 26.7146C61.3806 26.7146 59.7643 26.3215 58.3268 25.5356C56.8892 24.727 55.7555 23.5928 54.9238 22.133C54.1157 20.6733 53.7112 18.9888 53.7112 17.0798C53.7112 15.1708 54.1266 13.4865 54.9573 12.0266C55.8108 10.5668 56.9681 9.44389 58.4274 8.65782C59.8877 7.84934 61.5157 7.44501 63.3124 7.44501C65.1091 7.44501 66.7372 7.84934 68.1974 8.65782C69.6567 9.44389 70.8022 10.5668 71.633 12.0266C72.4865 13.4865 72.9137 15.1708 72.9137 17.0798C72.9137 18.9888 72.4756 20.6733 71.5995 22.133C70.746 23.5928 69.5787 24.727 68.0958 25.5356C66.6365 26.3215 64.9967 26.7146 63.1773 26.7146ZM63.1773 22.6047C64.0307 22.6047 64.828 22.4025 65.5699 21.9983C66.3336 21.5715 66.9394 20.9427 67.3884 20.1118C67.8382 19.2808 68.0623 18.2701 68.0623 17.0798C68.0623 15.3056 67.5906 13.9468 66.6474 13.0036C65.7268 12.0378 64.5922 11.555 63.2453 11.555C61.8975 11.555 60.7638 12.0378 59.8423 13.0036C58.9444 13.9468 58.4955 15.3056 58.4955 17.0798C58.4955 18.854 58.9326 20.224 59.8088 21.1898C60.7076 22.133 61.8304 22.6047 63.1773 22.6047Z" fill="var(--fill-0, #C8C8C8)"/>
<path id="Vector_7" d="M42.8741 26.7146C41.0773 26.7146 39.4604 26.3215 38.023 25.5356C36.5856 24.727 35.4515 23.5928 34.6205 22.133C33.812 20.6733 33.4078 18.9888 33.4078 17.0798C33.4078 15.1708 33.8233 13.4865 34.6542 12.0266C35.5076 10.5668 36.6643 9.44389 38.124 8.65782C39.5839 7.84934 41.2121 7.44501 43.0088 7.44501C44.8056 7.44501 46.4338 7.84934 47.8936 8.65782C49.3531 9.44389 50.4987 10.5668 51.3294 12.0266C52.1829 13.4865 52.6101 15.1708 52.6101 17.0798C52.6101 18.9888 52.172 20.6733 51.2959 22.133C50.4424 23.5928 49.2751 24.727 47.7925 25.5356C46.3327 26.3215 44.6933 26.7146 42.8741 26.7146ZM42.8741 22.6047C43.7275 22.6047 44.5248 22.4025 45.2659 21.9983C46.0295 21.5715 46.6359 20.9427 47.0851 20.1118C47.5343 19.2808 47.7589 18.2701 47.7589 17.0798C47.7589 15.3056 47.2872 13.9468 46.344 13.0036C45.4231 12.0378 44.2889 11.555 42.9415 11.555C41.594 11.555 40.4598 12.0378 39.5389 13.0036C38.6407 13.9468 38.1914 15.3056 38.1914 17.0798C38.1914 18.854 38.6294 20.224 39.5053 21.1898C40.4036 22.133 41.5266 22.6047 42.8741 22.6047Z" fill="var(--fill-0, #C8C8C8)"/>
<path id="Vector_8" d="M22.5705 26.7146C20.7738 26.7146 19.1568 26.3215 17.7194 25.5356C16.2821 24.727 15.1479 23.5928 14.3169 22.133C13.5084 20.6733 13.1042 18.9888 13.1042 17.0798C13.1042 15.1708 13.5197 13.4865 14.3506 12.0266C15.204 10.5668 16.3607 9.44389 17.8205 8.65782C19.2803 7.84934 20.9085 7.44501 22.7053 7.44501C24.5019 7.44501 26.1302 7.84934 27.59 8.65782C29.0498 9.44389 30.1952 10.5668 31.0261 12.0266C31.8796 13.4865 32.3063 15.1708 32.3063 17.0798C32.3063 18.9888 31.8684 20.6733 30.9925 22.133C30.139 23.5928 28.9712 24.727 27.4889 25.5356C26.0292 26.3215 24.3896 26.7146 22.5705 26.7146ZM22.5705 22.6047C23.424 22.6047 24.2212 22.4025 24.9624 21.9983C25.726 21.5715 26.3324 20.9427 26.7815 20.1118C27.2306 19.2808 27.4553 18.2701 27.4553 17.0798C27.4553 15.3056 26.9837 13.9468 26.0403 13.0036C25.1195 12.0378 23.9854 11.555 22.6379 11.555C21.2904 11.555 20.1562 12.0378 19.2354 13.0036C18.337 13.9468 17.8879 15.3056 17.8879 17.0798C17.8879 18.854 18.3258 20.224 19.2017 21.1898C20.1001 22.133 21.223 22.6047 22.5705 22.6047Z" fill="var(--fill-0, #C8C8C8)"/>
<path id="Vector_9" d="M4.71628 22.6721H12.4646V26.4114H0V2.89714H4.71628V22.6721Z" fill="var(--fill-0, #C8C8C8)"/>
<path id="Vector_10" d="M34.6521 28.9183C35.8468 32.4711 39.2046 35.0303 43.16 35.0303H43.6523C48.6085 35.0303 52.6264 31.0125 52.6264 26.0563V25.5492H47.761V26.0563C47.761 28.3255 45.9215 30.1651 43.6523 30.1651H43.16C42.0036 30.1651 40.9586 29.6873 40.212 28.9183H34.6521Z" fill="var(--fill-0, #C8C8C8)"/>
</g>
</svg>
