<svg preserveAspectRatio="none" width="100%" height="100%" overflow="visible" style="display: block;" viewBox="0 0 166.616 19.3955" fill="none" xmlns="http://www.w3.org/2000/svg">
<g id="logotype">
<path id="Vector" d="M159.22 0.236L159.338 0.2754C160.872 0.3147 162.21 1.377 162.603 2.8326L162.643 2.99L166.616 19.1201H161.344L158.984 9.5207L157.135 15.3826C156.584 16.9957 155.089 18.1366 153.358 18.1366C151.706 18.1366 150.211 17.0743 149.66 15.54L149.581 15.3826L147.732 9.5207L145.372 19.1201H140.139L144.073 2.99L144.113 2.8326C144.546 1.2983 145.922 0.236 147.536 0.236L147.654 0.2754C149.109 0.3147 150.368 1.2589 150.88 2.5966L150.919 2.7146L153.358 10.3862L155.797 2.7146L155.837 2.5966C156.348 1.1802 157.686 0.236 159.22 0.236Z" fill="var(--fill-0, #C8C8C8)"/>
<path id="Vector_2" d="M130.472 19.1201C125.239 19.1201 121.03 14.9105 121.03 9.6781V0.236H126.105V9.6781C126.105 12.0779 128.072 14.045 130.472 14.045C132.832 14.045 134.799 12.0779 134.799 9.6781V0.236H139.914V9.6781C139.914 14.9105 135.665 19.1201 130.472 19.1201Z" fill="var(--fill-0, #C8C8C8)"/>
<path id="Vector_3" d="M120.105 0.236V5.3505C117.902 5.3505 115.974 6.8061 115.345 8.9306L114.44 11.9206C113.181 16.2088 109.247 19.1201 104.801 19.1201V14.045C106.965 14.045 108.932 12.5894 109.561 10.4649L110.427 7.4749C111.686 3.1867 115.62 0.236 120.105 0.236Z" fill="var(--fill-0, #C8C8C8)"/>
<path id="Vector_4" d="M99.704 8.4191C100.53 8.4191 101.238 7.7503 101.238 6.8848C101.238 6.0586 100.53 5.3505 99.704 5.3505H94.078V8.4191H99.704ZM99.704 0.236C103.363 0.236 106.353 3.226 106.353 6.8848C106.353 10.5436 103.363 13.5336 99.704 13.5336H94.078V19.1201H89.003V4.839C89.003 2.3212 91.049 0.236 93.567 0.236H99.704Z" fill="var(--fill-0, #C8C8C8)"/>
<path id="Vector_5" d="M81.441 0.236H86.516V19.1201H81.441V0.236Z" fill="var(--fill-0, #C8C8C8)"/>
<path id="Vector_6" d="M69.997 5.1144H68.974C66.417 5.1144 64.371 7.1602 64.371 9.6781C64.371 12.2353 66.417 14.2811 68.974 14.2811H69.997C72.554 14.2811 74.6 12.2353 74.6 9.6781C74.6 7.1602 72.554 5.1144 69.997 5.1144ZM68.974 0H69.997C75.347 0 79.675 4.3276 79.675 9.6781C79.675 15.0679 75.347 19.3955 69.997 19.3955H68.974C63.624 19.3955 59.296 15.0679 59.296 9.6781C59.296 4.3276 63.624 0 68.974 0Z" fill="var(--fill-0, #C8C8C8)"/>
<path id="Vector_7" d="M57.14 5.3505H47.2261C44.8262 5.3505 42.8592 7.3176 42.8592 9.6781C42.8592 12.0779 44.8262 14.045 47.2261 14.045H52.1438C52.6553 13.9663 53.088 13.5336 53.088 12.9828V12.5107H45.4164V7.3963H53.954C56.314 7.3963 58.163 9.2847 58.163 11.6058V12.9828C58.163 16.3269 55.527 19.0414 52.1832 19.1201H47.2261C41.9936 19.1201 37.7841 14.9105 37.7841 9.6781C37.7841 4.485 41.9936 0.236 47.2261 0.236H57.14V5.3505Z" fill="var(--fill-0, #C8C8C8)"/>
<path id="Vector_8" d="M27.2055 5.1144H26.1826C23.6253 5.1144 21.5796 7.1602 21.5796 9.6781C21.5796 12.2353 23.6253 14.2811 26.1826 14.2811H27.2055C29.7627 14.2811 31.8084 12.2353 31.8084 9.6781C31.8084 7.1602 29.7627 5.1144 27.2055 5.1144ZM26.1826 0H27.2055C32.5559 0 36.8835 4.3276 36.8835 9.6781C36.8835 15.0679 32.5559 19.3955 27.2055 19.3955H26.1826C20.8321 19.3955 16.5045 15.0679 16.5045 9.6781C16.5045 4.3276 20.8321 0 26.1826 0Z" fill="var(--fill-0, #C8C8C8)"/>
<path id="Vector_9" d="M0 11.4878V0.236H5.0751V11.4878C5.0751 12.9041 6.216 14.045 7.6323 14.045H15.304V19.1201H7.6323C3.4227 19.1201 0 15.6974 0 11.4878Z" fill="var(--fill-0, #C8C8C8)"/>
</g>
</svg>
