<svg preserveAspectRatio="none" width="100%" height="100%" overflow="visible" style="display: block;" viewBox="0 0 32.6512 36.2791" fill="none" xmlns="http://www.w3.org/2000/svg">
<g id="logomark">
<path id="Vector" fill-rule="evenodd" clip-rule="evenodd" d="M0 13.6047V28.1163H4.53488C5.01129 28.1163 5.48305 28.2102 5.92325 28.3925C6.36334 28.5748 6.76335 28.842 7.10015 29.1789C7.43705 29.5157 7.70432 29.9157 7.88667 30.3559C8.0689 30.796 8.16279 31.2677 8.16279 31.7442V36.2791H19.0465L32.6512 22.6744V8.16279H28.1163C27.6398 8.16279 27.1681 8.06896 26.7279 7.88664C26.2878 7.70432 25.8878 7.43708 25.551 7.1002C25.2141 6.76333 24.9468 6.36337 24.7645 5.92322C24.5822 5.48307 24.4884 5.01132 24.4884 4.53488V0H13.6047L0 13.6047ZM15.4186 27.2093H9.06977V17.2326L17.2326 9.06977H23.5814V19.0465L15.4186 27.2093Z" fill="var(--fill-0, #C8C8C8)"/>
</g>
</svg>
