<svg width="36" height="36" viewBox="0 0 36 36" fill="none" xmlns="http://www.w3.org/2000/svg">
<path d="M36 18C36 27.9411 27.9411 36 18 36C8.05887 36 0 27.9411 0 18C0 8.05887 8.05887 0 18 0C27.9411 0 36 8.05887 36 18Z" fill="#1C1917"/>
<path d="M13.1213 27.2635C11.9497 28.4351 10.0503 28.4351 8.87868 27.2635C7.70711 26.0919 7.70711 24.1924 8.87868 23.0209L23.0208 8.87872C24.1924 7.70715 26.0919 7.70715 27.2635 8.87872C28.435 10.0503 28.435 11.9498 27.2635 13.1214L13.1213 27.2635Z" fill="#D0FC06"/>
<path d="M8.87872 13.1213C7.70715 11.9497 7.70715 10.0503 8.87873 8.87868C10.0503 7.70711 11.9498 7.70711 13.1214 8.87868L27.2635 23.0208C28.4351 24.1924 28.4351 26.0919 27.2635 27.2635C26.0919 28.435 24.1924 28.435 23.0209 27.2635L8.87872 13.1213Z" fill="#D0FC06"/>
</svg>
